<svg width="155" height="154" viewBox="0 0 155 154" xmlns="http://www.w3.org/2000/svg" font-family="&quot;JetBrains Mono&quot;, &quot;Menlo&quot;, &quot;Consolas&quot;, &quot;DejaVu Sans Mono&quot;, &quot;Liberation Mono&quot;, &quot;Roboto Mono&quot;, &quot;Noto Sans Mono&quot;, monospace" data-entviz-version="v12" data-entviz-lib="0.12.0" data-input-bytes="32" data-cols="2" data-rows="3"><defs><clipPath id="grid-clip-0372a8619ebcbbcd-2x3"><rect x="28" y="27" width="120" height="120"/></clipPath></defs><rect x="1" y="1" width="153" height="152" fill="#ffffff"/><g data-channel="grid"><rect x="28" y="27" width="120" height="120" fill="#e7be00"/><g><path fill="#ffffff" d="M46 27h6v10h-6zM58 27h6v10h-6zM70 27h6v10h-6zM82 27h6v10h-6zM82 57h6v10h-6zM76 57h6v10h-6zM70 57h6v10h-6zM58 57h6v10h-6zM52 57h6v10h-6z"/><path fill="#ffffff" d="M100 27h6v10h-6zM106 27h6v10h-6zM112 27h6v10h-6zM118 27h6v10h-6zM130 27h6v10h-6zM142 27h6v10h-6zM142 37h6v10h-6zM142 47h6v10h-6zM142 57h6v10h-6zM124 57h6v10h-6zM118 57h6v10h-6zM88 57h6v10h-6zM88 47h6v10h-6z"/><path fill="#2f3fbf" d="M28 67h6v10h-6zM52 67h6v10h-6zM70 67h6v10h-6zM76 67h6v10h-6zM82 77h6v10h-6zM82 87h6v10h-6zM70 97h6v10h-6zM64 97h6v10h-6zM58 97h6v10h-6zM52 97h6v10h-6zM40 97h6v10h-6zM34 97h6v10h-6zM28 97h6v10h-6zM28 77h6v10h-6z"/><path fill="#000000" d="M88 67h6v10h-6zM118 67h6v10h-6zM130 67h6v10h-6zM136 67h6v10h-6zM142 77h6v10h-6zM142 87h6v10h-6zM130 97h6v10h-6zM124 97h6v10h-6zM118 97h6v10h-6zM112 97h6v10h-6zM100 97h6v10h-6zM88 97h6v10h-6zM88 77h6v10h-6z"/><path fill="#2f3fbf" d="M34 107h6v10h-6zM46 107h6v10h-6zM52 107h6v10h-6zM70 107h6v10h-6zM82 127h6v10h-6zM82 137h6v10h-6zM76 137h6v10h-6zM52 137h6v10h-6zM40 137h6v10h-6zM34 137h6v10h-6zM28 137h6v10h-6zM28 117h6v10h-6z"/><path fill="#ffffff" d="M94 107h6v10h-6zM112 107h6v10h-6zM118 107h6v10h-6zM124 107h6v10h-6zM142 107h6v10h-6zM142 117h6v10h-6zM142 127h6v10h-6zM136 137h6v10h-6zM130 137h6v10h-6zM118 137h6v10h-6zM112 137h6v10h-6zM88 127h6v10h-6zM88 117h6v10h-6z"/></g><g clip-path="url(#grid-clip-0372a8619ebcbbcd-2x3)" data-channel="ellipse" data-ellipse-anchor-x="148" data-ellipse-anchor-y="107" data-ellipse-rx="49.035" data-ellipse-ry="31.729" data-ellipse-rotation-deg="60"><ellipse cx="148" cy="107" rx="49.035" ry="31.729" transform="rotate(60 148 107)" fill="#000000" stroke="#000000" fill-opacity="0.2" stroke-opacity="0.3" stroke-width="2"/></g><g><g data-channel="cell" data-cell-index="0" data-cell-row="0" data-cell-col="0" data-surround-bits="0x372a8" data-edge-color="#ffffff" data-cell-quartile="3"><rect x="34" y="37" width="48" height="20" fill="#452301"/><text x="58" y="47" fill="#ffffff" font-size="12" text-anchor="middle" dominant-baseline="central">012345</text><polygon points="82,57 82,47 72,57" fill="#ffffff"/></g><g data-channel="cell" data-cell-index="1" data-cell-row="0" data-cell-col="1" data-surround-bits="0x619ebc" data-edge-color="#ffffff" data-cell-quartile="1"><rect x="94" y="37" width="48" height="20" fill="#ab8967"/><text x="118" y="47" fill="#000000" font-size="12" text-anchor="middle" dominant-baseline="central">6789ab</text><polygon points="94,37 104,37 94,47" fill="#000000"/></g><g data-channel="cell" data-cell-index="2" data-cell-row="1" data-cell-col="0" data-surround-bits="0xbbcd91" data-edge-color="#2f3fbf"><rect x="34" y="77" width="48" height="20" fill="#01efcd"/><text x="58" y="87" fill="#000000" font-size="12" text-anchor="middle" dominant-baseline="central">cdef01</text></g><g data-channel="cell" data-cell-index="3" data-cell-row="1" data-cell-col="1" data-surround-bits="0xabcda1" data-edge-color="#000000"><rect x="94" y="77" width="48" height="20" fill="#674523"/><text x="118" y="87" fill="#ffffff" font-size="12" text-anchor="middle" dominant-baseline="central">234567</text></g><g data-channel="cell" data-cell-index="4" data-cell-row="2" data-cell-col="0" data-surround-bits="0xba389a" data-edge-color="#2f3fbf" data-cell-quartile="2"><rect x="34" y="117" width="48" height="20" fill="#cdab89"/><text x="58" y="127" fill="#000000" font-size="12" text-anchor="middle" dominant-baseline="central">89abcd</text><polygon points="82,117 72,117 82,127" fill="#000000"/></g><g data-channel="cell" data-cell-index="5" data-cell-row="2" data-cell-col="1" data-surround-bits="0xc36e72" data-edge-color="#ffffff"><rect x="94" y="117" width="48" height="20" fill="#efefef"/><text x="118" y="127" fill="#000000" font-size="12" text-anchor="middle" dominant-baseline="central">ef</text></g></g></g><g data-channel="color-bar" data-bar-slots="12" data-bar-marker-left="1" data-bar-marker-right="11"><g data-color-bar-rank="0" data-color-bar-band="K"><rect x="2" y="2" width="20" height="18.062" fill="#000000"/><text x="12" y="17.422" fill="#ffffff" font-size="12" text-anchor="middle" data-color-bar-letter="true">k</text></g><g data-color-bar-rank="1" data-color-bar-band="W"><rect x="2" y="20.062" width="20" height="14.549" fill="#ffffff"/><text x="12" y="31.971" fill="#000000" font-size="12" text-anchor="middle" data-color-bar-letter="true">w</text></g><g data-color-bar-rank="2" data-color-bar-band="B"><rect x="2" y="34.611" width="20" height="98.026" fill="#2f3fbf"/><text x="12" y="129.997" fill="#ffffff" font-size="12" text-anchor="middle" data-color-bar-letter="true">b</text></g><g data-color-bar-rank="3" data-color-bar-band="R"><rect x="2" y="132.637" width="20" height="19.363" fill="#ff3f2f"/><text x="12" y="149.36" fill="#000000" font-size="12" text-anchor="middle" data-color-bar-letter="true">r</text></g><circle cx="6.6" cy="20.75" r="3.4" fill="#ffffff" stroke="#000000" stroke-width="0.75" data-bar-marker="left"/><circle cx="17.4" cy="145.75" r="3.4" fill="#ffffff" stroke="#000000" stroke-width="0.75" data-bar-marker="right"/></g><g data-channel="label-top"><text x="28" y="17" fill="#666666" font-size="12" dominant-baseline="central">UUID:</text></g><line x1="1" y1="1.5" x2="154" y2="1.5" stroke="#808080" stroke-width="1" shape-rendering="crispEdges"/><line x1="153.5" y1="1" x2="153.5" y2="153" stroke="#808080" stroke-width="1" shape-rendering="crispEdges"/><line x1="1" y1="152.5" x2="154" y2="152.5" stroke="#808080" stroke-width="1" shape-rendering="crispEdges"/><line x1="1.5" y1="1" x2="1.5" y2="153" stroke="#808080" stroke-width="1" shape-rendering="crispEdges"/><line x1="22.5" y1="1" x2="22.5" y2="153" stroke="#808080" stroke-width="1" shape-rendering="crispEdges"/></svg>