<svg width="273" height="192" viewBox="0 0 273 192" xmlns="http://www.w3.org/2000/svg" font-family="&quot;JetBrains Mono&quot;, &quot;Menlo&quot;, &quot;Consolas&quot;, &quot;DejaVu Sans Mono&quot;, &quot;Liberation Mono&quot;, &quot;Roboto Mono&quot;, &quot;Noto Sans Mono&quot;, monospace" data-entviz-version="v10" data-entviz-lib="0.10.0" data-input-bytes="43" data-cols="4" data-rows="4"><defs><clipPath id="grid-clip-1765ab1c62259d54-4x4"><rect x="27" y="26" width="240" height="160"/></clipPath></defs><rect x="0" y="0" width="273" height="192" fill="#ffffff"/><g data-channel="grid"><rect x="27" y="26" width="240" height="160" fill="#ff3f2f"/><g><path fill="#000000" d="M27 26h6v10h-6zM33 26h6v10h-6zM45 26h6v10h-6zM57 26h6v10h-6zM69 26h6v10h-6zM75 26h6v10h-6zM81 36h6v10h-6zM75 56h6v10h-6zM69 56h6v10h-6zM57 56h6v10h-6zM51 56h6v10h-6zM45 56h6v10h-6zM33 56h6v10h-6z"/><path fill="#e7be00" d="M87 26h6v10h-6zM99 26h6v10h-6zM117 26h6v10h-6zM141 26h6v10h-6zM135 56h6v10h-6zM129 56h6v10h-6zM105 56h6v10h-6zM99 56h6v10h-6zM93 56h6v10h-6z"/><path fill="#2f3fbf" d="M153 26h6v10h-6zM171 26h6v10h-6zM177 26h6v10h-6zM201 36h6v10h-6zM201 56h6v10h-6zM189 56h6v10h-6zM177 56h6v10h-6zM165 56h6v10h-6zM159 56h6v10h-6zM153 56h6v10h-6zM147 36h6v10h-6z"/><path fill="#e7be00" d="M207 26h6v10h-6zM213 26h6v10h-6zM225 26h6v10h-6zM231 26h6v10h-6zM237 26h6v10h-6zM261 36h6v10h-6zM243 56h6v10h-6zM219 56h6v10h-6z"/><path fill="#2f3fbf" d="M27 66h6v10h-6zM33 66h6v10h-6zM39 66h6v10h-6zM45 66h6v10h-6zM63 66h6v10h-6zM69 66h6v10h-6zM75 66h6v10h-6zM81 66h6v10h-6zM81 76h6v10h-6zM81 86h6v10h-6zM75 96h6v10h-6zM69 96h6v10h-6zM51 96h6v10h-6zM39 96h6v10h-6zM33 96h6v10h-6zM27 96h6v10h-6zM27 86h6v10h-6z"/><path fill="#e7be00" d="M153 66h6v10h-6zM165 66h6v10h-6zM177 66h6v10h-6zM201 66h6v10h-6zM201 86h6v10h-6zM201 96h6v10h-6zM165 96h6v10h-6zM159 96h6v10h-6zM147 96h6v10h-6z"/><path fill="#ffffff" d="M231 66h6v10h-6zM243 66h6v10h-6zM249 66h6v10h-6zM261 66h6v10h-6zM261 96h6v10h-6zM255 96h6v10h-6zM243 96h6v10h-6zM237 96h6v10h-6zM231 96h6v10h-6zM225 96h6v10h-6zM219 96h6v10h-6zM213 96h6v10h-6zM207 86h6v10h-6z"/><path fill="#2f3fbf" d="M27 106h6v10h-6zM33 106h6v10h-6zM39 106h6v10h-6zM45 106h6v10h-6zM57 106h6v10h-6zM69 106h6v10h-6zM75 106h6v10h-6zM81 136h6v10h-6zM69 136h6v10h-6zM51 136h6v10h-6zM45 136h6v10h-6zM33 136h6v10h-6zM27 136h6v10h-6zM27 116h6v10h-6z"/><path fill="#2f3fbf" d="M87 106h6v10h-6zM93 106h6v10h-6zM99 106h6v10h-6zM117 106h6v10h-6zM141 136h6v10h-6zM135 136h6v10h-6zM123 136h6v10h-6zM105 136h6v10h-6zM93 136h6v10h-6z"/><path fill="#2f3fbf" d="M159 106h6v10h-6zM177 106h6v10h-6zM189 106h6v10h-6zM195 106h6v10h-6zM201 106h6v10h-6zM201 116h6v10h-6zM201 136h6v10h-6zM189 136h6v10h-6zM183 136h6v10h-6zM165 136h6v10h-6zM159 136h6v10h-6zM153 136h6v10h-6zM147 136h6v10h-6zM147 126h6v10h-6z"/><path fill="#e7be00" d="M207 106h6v10h-6zM213 106h6v10h-6zM219 106h6v10h-6zM231 106h6v10h-6zM249 106h6v10h-6zM261 126h6v10h-6zM255 136h6v10h-6zM249 136h6v10h-6zM243 136h6v10h-6zM237 136h6v10h-6zM213 136h6v10h-6z"/><path fill="#2f3fbf" d="M33 146h6v10h-6zM39 146h6v10h-6zM51 146h6v10h-6zM63 146h6v10h-6zM75 146h6v10h-6zM75 176h6v10h-6zM69 176h6v10h-6zM63 176h6v10h-6zM57 176h6v10h-6zM51 176h6v10h-6zM45 176h6v10h-6zM39 176h6v10h-6zM33 176h6v10h-6zM27 176h6v10h-6zM27 166h6v10h-6z"/><path fill="#2f3fbf" d="M93 146h6v10h-6zM105 146h6v10h-6zM111 146h6v10h-6zM117 146h6v10h-6zM129 146h6v10h-6zM141 146h6v10h-6zM141 156h6v10h-6zM141 176h6v10h-6zM111 176h6v10h-6zM87 176h6v10h-6z"/><path fill="#e7be00" d="M147 146h6v10h-6zM159 146h6v10h-6zM201 156h6v10h-6zM201 166h6v10h-6zM201 176h6v10h-6zM195 176h6v10h-6zM189 176h6v10h-6zM183 176h6v10h-6zM177 176h6v10h-6zM171 176h6v10h-6zM165 176h6v10h-6zM147 176h6v10h-6z"/><path fill="#2f3fbf" d="M207 146h6v10h-6zM231 146h6v10h-6zM243 146h6v10h-6zM249 146h6v10h-6zM261 146h6v10h-6zM261 166h6v10h-6zM261 176h6v10h-6zM249 176h6v10h-6zM243 176h6v10h-6zM237 176h6v10h-6zM231 176h6v10h-6zM225 176h6v10h-6zM219 176h6v10h-6zM207 156h6v10h-6z"/></g><g clip-path="url(#grid-clip-1765ab1c62259d54-4x4)" data-channel="ellipse" data-ellipse-anchor-x="147" data-ellipse-anchor-y="66" data-ellipse-rx="94.356" data-ellipse-ry="98.429" data-ellipse-rotation-deg="84"><ellipse cx="147" cy="66" rx="94.356" ry="98.429" transform="rotate(84 147 66)" fill="#000000" stroke="#000000" fill-opacity="0.25" stroke-opacity="0.35" stroke-width="2"/></g><g><g data-channel="cell" data-cell-index="0" data-cell-row="0" data-cell-col="0" data-surround-bits="0x1765ab" data-edge-color="#000000" data-cell-quartile="4"><rect x="33" y="36" width="48" height="20" fill="#656854"/><text x="57" y="46" fill="#ffffff" font-size="16" text-anchor="middle" dominant-baseline="central">VGhl</text><polygon points="33,56 33,46 43,56" fill="#ffffff"/></g><g data-channel="cell" data-cell-index="1" data-cell-row="0" data-cell-col="1" data-surround-bits="0x1c6225" data-edge-color="#e7be00"><rect x="93" y="36" width="48" height="20" fill="#757120"/><text x="117" y="46" fill="#ffffff" font-size="16" text-anchor="middle" dominant-baseline="central">IHF1</text></g><g data-channel="cell" data-cell-index="2" data-cell-row="0" data-cell-col="2" data-surround-bits="0x9d5432" data-edge-color="#2f3fbf"><rect x="153" y="36" width="48" height="20" fill="#6b6369"/><text x="177" y="46" fill="#ffffff" font-size="16" text-anchor="middle" dominant-baseline="central">aWNr</text></g><g data-channel="cell" data-cell-index="3" data-cell-row="0" data-cell-col="3" data-surround-bits="0x8843b" data-edge-color="#e7be00"><rect x="213" y="36" width="48" height="20" fill="#726220"/><text x="237" y="46" fill="#ffffff" font-size="16" text-anchor="middle" dominant-baseline="central">IGJy</text></g><g data-channel="cell" data-cell-index="4" data-cell-row="1" data-cell-col="0" data-surround-bits="0x7a6fcf" data-edge-color="#2f3fbf"><rect x="33" y="76" width="48" height="20" fill="#6e776f"/><text x="57" y="86" fill="#ffffff" font-size="16" text-anchor="middle" dominant-baseline="central">b3du</text></g><g data-channel="cell" data-cell-index="5" data-cell-row="1" data-cell-col="1" data-cell-blank="true" data-cell-blank-map="true"><rect x="93" y="76" width="48" height="20" rx="10" ry="10" fill="#000000" stroke="#000000" stroke-width="1"/><circle cx="135" cy="78.5" r="3.5" fill="#ffffff" data-blank-map-min="0,3"/><path d="M 94.8,88.5 H 103.2 M 99,84.3 V 92.7" fill="none" stroke="#ffffff" stroke-width="1.925" stroke-linecap="butt" data-blank-map-max="2,0"/></g><g data-channel="cell" data-cell-index="6" data-cell-row="1" data-cell-col="2" data-surround-bits="0x2c1a2a" data-edge-color="#e7be00"><rect x="153" y="76" width="48" height="20" fill="#6f6620"/><text x="177" y="86" fill="#ffffff" font-size="16" text-anchor="middle" dominant-baseline="central">IGZv</text></g><g data-channel="cell" data-cell-index="7" data-cell-row="1" data-cell-col="3" data-surround-bits="0x5fb2d0" data-edge-color="#ffffff" data-cell-quartile="2"><rect x="213" y="76" width="48" height="20" fill="#6a2078"/><text x="237" y="86" fill="#ffffff" font-size="16" text-anchor="middle" dominant-baseline="central">eCBq</text><polygon points="261,76 251,76 261,86" fill="#ffffff"/></g><g data-channel="cell" data-cell-index="8" data-cell-row="2" data-cell-col="0" data-surround-bits="0xb651af" data-edge-color="#2f3fbf"><rect x="33" y="116" width="48" height="20" fill="#706d75"/><text x="57" y="126" fill="#ffffff" font-size="16" text-anchor="middle" dominant-baseline="central">dW1w</text></g><g data-channel="cell" data-cell-index="9" data-cell-row="2" data-cell-col="1" data-surround-bits="0x14b027" data-edge-color="#2f3fbf"><rect x="93" y="116" width="48" height="20" fill="#6f2073"/><text x="117" y="126" fill="#ffffff" font-size="16" text-anchor="middle" dominant-baseline="central">cyBv</text></g><g data-channel="cell" data-cell-index="10" data-cell-row="2" data-cell-col="2" data-surround-bits="0x7cd7a4" data-edge-color="#2f3fbf" data-cell-quartile="3"><rect x="153" y="116" width="48" height="20" fill="#726576"/><text x="177" y="126" fill="#ffffff" font-size="16" text-anchor="middle" dominant-baseline="central">dmVy</text><polygon points="201,136 201,126 191,136" fill="#ffffff"/></g><g data-channel="cell" data-cell-index="11" data-cell-row="2" data-cell-col="3" data-surround-bits="0x11e897" data-edge-color="#e7be00"><rect x="213" y="116" width="48" height="20" fill="#687420"/><text x="237" y="126" fill="#ffffff" font-size="16" text-anchor="middle" dominant-baseline="central">IHRo</text></g><g data-channel="cell" data-cell-index="12" data-cell-row="3" data-cell-col="0" data-surround-bits="0x7fe156" data-edge-color="#2f3fbf"><rect x="33" y="156" width="48" height="20" fill="#6c2065"/><text x="57" y="166" fill="#ffffff" font-size="16" text-anchor="middle" dominant-baseline="central">ZSBs</text></g><g data-channel="cell" data-cell-index="13" data-cell-row="3" data-cell-col="1" data-surround-bits="0x2216ba" data-edge-color="#2f3fbf" data-cell-quartile="1"><rect x="93" y="156" width="48" height="20" fill="#797a61"/><text x="117" y="166" fill="#ffffff" font-size="16" text-anchor="middle" dominant-baseline="central">YXp5</text><polygon points="93,156 103,156 93,166" fill="#ffffff"/></g><g data-channel="cell" data-cell-index="14" data-cell-row="3" data-cell-col="2" data-surround-bits="0x27fc05" data-edge-color="#e7be00"><rect x="153" y="156" width="48" height="20" fill="#6f6420"/><text x="177" y="166" fill="#ffffff" font-size="16" text-anchor="middle" dominant-baseline="central">IGRv</text></g><g data-channel="cell" data-cell-index="15" data-cell-row="3" data-cell-col="3" data-surround-bits="0x8fdad1" data-edge-color="#2f3fbf"><rect x="213" y="156" width="48" height="20" fill="#700667"/><text x="237" y="166" fill="#ffffff" font-size="16" text-anchor="middle" dominant-baseline="central">Zw</text></g></g></g><g data-channel="color-bar" data-bar-slots="15" data-bar-marker-left="1" data-bar-marker-right="7"><g data-color-bar-rank="0" data-color-bar-band="K"><rect x="1" y="1" width="20" height="36.077" fill="#000000"/><text x="11" y="33.557" fill="#ffffff" font-size="16" text-anchor="middle" data-color-bar-letter="true">k</text></g><g data-color-bar-rank="1" data-color-bar-band="G"><rect x="1" y="37.077" width="20" height="49.691" fill="#e7be00"/><text x="11" y="83.248" fill="#000000" font-size="16" text-anchor="middle" data-color-bar-letter="true">g</text></g><g data-color-bar-rank="2" data-color-bar-band="W"><rect x="1" y="86.768" width="20" height="41.133" fill="#ffffff"/><text x="11" y="124.381" fill="#000000" font-size="16" text-anchor="middle" data-color-bar-letter="true">w</text></g><g data-color-bar-rank="3" data-color-bar-band="B"><rect x="1" y="127.901" width="20" height="63.099" fill="#2f3fbf"/><text x="11" y="187.48" fill="#ffffff" font-size="16" text-anchor="middle" data-color-bar-letter="true">b</text></g><circle cx="5.6" cy="20" r="3.4" fill="#ffffff" stroke="#000000" stroke-width="0.75" data-bar-marker="left"/><circle cx="16.4" cy="96" r="3.4" fill="#ffffff" stroke="#000000" stroke-width="0.75" data-bar-marker="right"/></g><g data-channel="label-top"><text x="27" y="16" fill="#666666" font-size="12" dominant-baseline="central">txt(43)-&gt;b64url:</text></g><line x1="0" y1="0.5" x2="273" y2="0.5" stroke="#808080" stroke-width="1" shape-rendering="crispEdges"/><line x1="272.5" y1="0" x2="272.5" y2="192" stroke="#808080" stroke-width="1" shape-rendering="crispEdges"/><line x1="0" y1="191.5" x2="273" y2="191.5" stroke="#808080" stroke-width="1" shape-rendering="crispEdges"/><line x1="0.5" y1="0" x2="0.5" y2="192" stroke="#808080" stroke-width="1" shape-rendering="crispEdges"/><line x1="21.5" y1="0" x2="21.5" y2="192" stroke="#808080" stroke-width="1" shape-rendering="crispEdges"/></svg>