<svg width="275" height="194" viewBox="0 0 275 194" xmlns="http://www.w3.org/2000/svg" font-family="&quot;JetBrains Mono&quot;, &quot;Menlo&quot;, &quot;Consolas&quot;, &quot;DejaVu Sans Mono&quot;, &quot;Liberation Mono&quot;, &quot;Roboto Mono&quot;, &quot;Noto Sans Mono&quot;, monospace" data-entviz-version="v14" data-entviz-lib="0.14.0" data-input-bytes="43" data-cols="4" data-rows="4" data-encoding="base64url" data-scheme="" data-role="" data-size-basis="utf8" data-entropy-type="base64url" data-size-bits="344" data-qualifiers="{}" data-parts="[{&quot;text&quot;:&quot;VGhlIHF1aWNrIGJyb3duIGZveCBqdW1wcyBvdmVyIHRoZSBsYXp5IGRvZw&quot;,&quot;bind&quot;:&quot;core&quot;}]"><defs><clipPath id="grid-clip-1765ab1c62259d54-4x4"><rect x="28" y="27" width="240" height="160"/></clipPath></defs><rect x="1" y="1" width="273" height="192" fill="#ffffff"/><g data-channel="grid"><rect x="28" y="27" width="240" height="160" fill="#ff3f2f"/><g><path fill="#000000" d="M28 27h6v10h-6zM34 27h6v10h-6zM46 27h6v10h-6zM58 27h6v10h-6zM70 27h6v10h-6zM76 27h6v10h-6zM82 37h6v10h-6zM76 57h6v10h-6zM70 57h6v10h-6zM58 57h6v10h-6zM52 57h6v10h-6zM46 57h6v10h-6zM34 57h6v10h-6z"/><path fill="#e7be00" d="M88 27h6v10h-6zM100 27h6v10h-6zM118 27h6v10h-6zM142 27h6v10h-6zM136 57h6v10h-6zM130 57h6v10h-6zM106 57h6v10h-6zM100 57h6v10h-6zM94 57h6v10h-6z"/><path fill="#2f3fbf" d="M154 27h6v10h-6zM172 27h6v10h-6zM178 27h6v10h-6zM202 37h6v10h-6zM202 57h6v10h-6zM190 57h6v10h-6zM178 57h6v10h-6zM166 57h6v10h-6zM160 57h6v10h-6zM154 57h6v10h-6zM148 37h6v10h-6z"/><path fill="#e7be00" d="M208 27h6v10h-6zM214 27h6v10h-6zM226 27h6v10h-6zM232 27h6v10h-6zM238 27h6v10h-6zM262 37h6v10h-6zM244 57h6v10h-6zM220 57h6v10h-6z"/><path fill="#2f3fbf" d="M28 67h6v10h-6zM34 67h6v10h-6zM40 67h6v10h-6zM46 67h6v10h-6zM64 67h6v10h-6zM70 67h6v10h-6zM76 67h6v10h-6zM82 67h6v10h-6zM82 77h6v10h-6zM82 87h6v10h-6zM76 97h6v10h-6zM70 97h6v10h-6zM52 97h6v10h-6zM40 97h6v10h-6zM34 97h6v10h-6zM28 97h6v10h-6zM28 87h6v10h-6z"/><path fill="#e7be00" d="M154 67h6v10h-6zM166 67h6v10h-6zM178 67h6v10h-6zM202 67h6v10h-6zM202 87h6v10h-6zM202 97h6v10h-6zM166 97h6v10h-6zM160 97h6v10h-6zM148 97h6v10h-6z"/><path fill="#ffffff" d="M232 67h6v10h-6zM244 67h6v10h-6zM250 67h6v10h-6zM262 67h6v10h-6zM262 97h6v10h-6zM256 97h6v10h-6zM244 97h6v10h-6zM238 97h6v10h-6zM232 97h6v10h-6zM226 97h6v10h-6zM220 97h6v10h-6zM214 97h6v10h-6zM208 87h6v10h-6z"/><path fill="#2f3fbf" d="M28 107h6v10h-6zM34 107h6v10h-6zM40 107h6v10h-6zM46 107h6v10h-6zM58 107h6v10h-6zM70 107h6v10h-6zM76 107h6v10h-6zM82 137h6v10h-6zM70 137h6v10h-6zM52 137h6v10h-6zM46 137h6v10h-6zM34 137h6v10h-6zM28 137h6v10h-6zM28 117h6v10h-6z"/><path fill="#2f3fbf" d="M88 107h6v10h-6zM94 107h6v10h-6zM100 107h6v10h-6zM118 107h6v10h-6zM142 137h6v10h-6zM136 137h6v10h-6zM124 137h6v10h-6zM106 137h6v10h-6zM94 137h6v10h-6z"/><path fill="#2f3fbf" d="M160 107h6v10h-6zM178 107h6v10h-6zM190 107h6v10h-6zM196 107h6v10h-6zM202 107h6v10h-6zM202 117h6v10h-6zM202 137h6v10h-6zM190 137h6v10h-6zM184 137h6v10h-6zM166 137h6v10h-6zM160 137h6v10h-6zM154 137h6v10h-6zM148 137h6v10h-6zM148 127h6v10h-6z"/><path fill="#e7be00" d="M208 107h6v10h-6zM214 107h6v10h-6zM220 107h6v10h-6zM232 107h6v10h-6zM250 107h6v10h-6zM262 127h6v10h-6zM256 137h6v10h-6zM250 137h6v10h-6zM244 137h6v10h-6zM238 137h6v10h-6zM214 137h6v10h-6z"/><path fill="#2f3fbf" d="M34 147h6v10h-6zM40 147h6v10h-6zM52 147h6v10h-6zM64 147h6v10h-6zM76 147h6v10h-6zM76 177h6v10h-6zM70 177h6v10h-6zM64 177h6v10h-6zM58 177h6v10h-6zM52 177h6v10h-6zM46 177h6v10h-6zM40 177h6v10h-6zM34 177h6v10h-6zM28 177h6v10h-6zM28 167h6v10h-6z"/><path fill="#2f3fbf" d="M94 147h6v10h-6zM106 147h6v10h-6zM112 147h6v10h-6zM118 147h6v10h-6zM130 147h6v10h-6zM142 147h6v10h-6zM142 157h6v10h-6zM142 177h6v10h-6zM112 177h6v10h-6zM88 177h6v10h-6z"/><path fill="#e7be00" d="M148 147h6v10h-6zM160 147h6v10h-6zM202 157h6v10h-6zM202 167h6v10h-6zM202 177h6v10h-6zM196 177h6v10h-6zM190 177h6v10h-6zM184 177h6v10h-6zM178 177h6v10h-6zM172 177h6v10h-6zM166 177h6v10h-6zM148 177h6v10h-6z"/><path fill="#2f3fbf" d="M208 147h6v10h-6zM232 147h6v10h-6zM244 147h6v10h-6zM250 147h6v10h-6zM262 147h6v10h-6zM262 167h6v10h-6zM262 177h6v10h-6zM250 177h6v10h-6zM244 177h6v10h-6zM238 177h6v10h-6zM232 177h6v10h-6zM226 177h6v10h-6zM220 177h6v10h-6zM208 157h6v10h-6z"/></g><g clip-path="url(#grid-clip-1765ab1c62259d54-4x4)" data-channel="ellipse" data-ellipse-anchor-x="148" data-ellipse-anchor-y="67" data-ellipse-rx="94.356" data-ellipse-ry="98.429" data-ellipse-rotation-deg="84"><ellipse cx="148" cy="67" rx="94.356" ry="98.429" transform="rotate(84 148 67)" fill="#000000" stroke="#000000" fill-opacity="0.25" stroke-opacity="0.35" stroke-width="2"/></g><g><g data-channel="cell" data-cell-index="0" data-cell-row="0" data-cell-col="0" data-surround-bits="0x1765ab" data-edge-color="#000000" data-cell-quartile="4"><rect x="34" y="37" width="48" height="20" fill="#656854"/><text x="58" y="47" fill="#ffffff" font-size="16" text-anchor="middle" dominant-baseline="central">VGhl</text><polygon points="34,57 34,47 44,57" fill="#ffffff"/></g><g data-channel="cell" data-cell-index="1" data-cell-row="0" data-cell-col="1" data-surround-bits="0x1c6225" data-edge-color="#e7be00"><rect x="94" y="37" width="48" height="20" fill="#757120"/><text x="118" y="47" fill="#ffffff" font-size="16" text-anchor="middle" dominant-baseline="central">IHF1</text></g><g data-channel="cell" data-cell-index="2" data-cell-row="0" data-cell-col="2" data-surround-bits="0x9d5432" data-edge-color="#2f3fbf"><rect x="154" y="37" width="48" height="20" fill="#6b6369"/><text x="178" y="47" fill="#ffffff" font-size="16" text-anchor="middle" dominant-baseline="central">aWNr</text></g><g data-channel="cell" data-cell-index="3" data-cell-row="0" data-cell-col="3" data-surround-bits="0x8843b" data-edge-color="#e7be00"><rect x="214" y="37" width="48" height="20" fill="#726220"/><text x="238" y="47" fill="#ffffff" font-size="16" text-anchor="middle" dominant-baseline="central">IGJy</text></g><g data-channel="cell" data-cell-index="4" data-cell-row="1" data-cell-col="0" data-surround-bits="0x7a6fcf" data-edge-color="#2f3fbf"><rect x="34" y="77" width="48" height="20" fill="#6e776f"/><text x="58" y="87" fill="#ffffff" font-size="16" text-anchor="middle" dominant-baseline="central">b3du</text></g><g data-channel="cell" data-cell-index="5" data-cell-row="1" data-cell-col="1" data-cell-blank="true" data-cell-blank-map="true"><rect x="94" y="77" width="48" height="20" rx="10" ry="10" fill="#000000" stroke="#000000" stroke-width="1"/><circle cx="136" cy="79.5" r="3.5" fill="#ffffff" data-blank-map-min="0,3"/><path d="M 95.8,89.5 H 104.2 M 100,85.3 V 93.7" fill="none" stroke="#ffffff" stroke-width="1.925" stroke-linecap="butt" data-blank-map-max="2,0"/></g><g data-channel="cell" data-cell-index="6" data-cell-row="1" data-cell-col="2" data-surround-bits="0x2c1a2a" data-edge-color="#e7be00"><rect x="154" y="77" width="48" height="20" fill="#6f6620"/><text x="178" y="87" fill="#ffffff" font-size="16" text-anchor="middle" dominant-baseline="central">IGZv</text></g><g data-channel="cell" data-cell-index="7" data-cell-row="1" data-cell-col="3" data-surround-bits="0x5fb2d0" data-edge-color="#ffffff" data-cell-quartile="2"><rect x="214" y="77" width="48" height="20" fill="#6a2078"/><text x="238" y="87" fill="#ffffff" font-size="16" text-anchor="middle" dominant-baseline="central">eCBq</text><polygon points="262,77 252,77 262,87" fill="#ffffff"/></g><g data-channel="cell" data-cell-index="8" data-cell-row="2" data-cell-col="0" data-surround-bits="0xb651af" data-edge-color="#2f3fbf"><rect x="34" y="117" width="48" height="20" fill="#706d75"/><text x="58" y="127" fill="#ffffff" font-size="16" text-anchor="middle" dominant-baseline="central">dW1w</text></g><g data-channel="cell" data-cell-index="9" data-cell-row="2" data-cell-col="1" data-surround-bits="0x14b027" data-edge-color="#2f3fbf"><rect x="94" y="117" width="48" height="20" fill="#6f2073"/><text x="118" y="127" fill="#ffffff" font-size="16" text-anchor="middle" dominant-baseline="central">cyBv</text></g><g data-channel="cell" data-cell-index="10" data-cell-row="2" data-cell-col="2" data-surround-bits="0x7cd7a4" data-edge-color="#2f3fbf" data-cell-quartile="3"><rect x="154" y="117" width="48" height="20" fill="#726576"/><text x="178" y="127" fill="#ffffff" font-size="16" text-anchor="middle" dominant-baseline="central">dmVy</text><polygon points="202,137 202,127 192,137" fill="#ffffff"/></g><g data-channel="cell" data-cell-index="11" data-cell-row="2" data-cell-col="3" data-surround-bits="0x11e897" data-edge-color="#e7be00"><rect x="214" y="117" width="48" height="20" fill="#687420"/><text x="238" y="127" fill="#ffffff" font-size="16" text-anchor="middle" dominant-baseline="central">IHRo</text></g><g data-channel="cell" data-cell-index="12" data-cell-row="3" data-cell-col="0" data-surround-bits="0x7fe156" data-edge-color="#2f3fbf"><rect x="34" y="157" width="48" height="20" fill="#6c2065"/><text x="58" y="167" fill="#ffffff" font-size="16" text-anchor="middle" dominant-baseline="central">ZSBs</text></g><g data-channel="cell" data-cell-index="13" data-cell-row="3" data-cell-col="1" data-surround-bits="0x2216ba" data-edge-color="#2f3fbf" data-cell-quartile="1"><rect x="94" y="157" width="48" height="20" fill="#797a61"/><text x="118" y="167" fill="#ffffff" font-size="16" text-anchor="middle" dominant-baseline="central">YXp5</text><polygon points="94,157 104,157 94,167" fill="#ffffff"/></g><g data-channel="cell" data-cell-index="14" data-cell-row="3" data-cell-col="2" data-surround-bits="0x27fc05" data-edge-color="#e7be00"><rect x="154" y="157" width="48" height="20" fill="#6f6420"/><text x="178" y="167" fill="#ffffff" font-size="16" text-anchor="middle" dominant-baseline="central">IGRv</text></g><g data-channel="cell" data-cell-index="15" data-cell-row="3" data-cell-col="3" data-surround-bits="0x8fdad1" data-edge-color="#2f3fbf"><rect x="214" y="157" width="48" height="20" fill="#700667"/><text x="238" y="167" fill="#ffffff" font-size="16" text-anchor="middle" dominant-baseline="central">Zw</text></g></g></g><g data-channel="color-bar" data-bar-slots="15" data-bar-marker-left="1" data-bar-marker-right="7"><g data-color-bar-rank="0" data-color-bar-band="K"><rect x="2" y="2" width="20" height="36.077" fill="#000000"/><text x="12" y="34.557" fill="#ffffff" font-size="16" text-anchor="middle" data-color-bar-letter="true">k</text></g><g data-color-bar-rank="1" data-color-bar-band="G"><rect x="2" y="38.077" width="20" height="49.691" fill="#e7be00"/><text x="12" y="84.248" fill="#000000" font-size="16" text-anchor="middle" data-color-bar-letter="true">g</text></g><g data-color-bar-rank="2" data-color-bar-band="W"><rect x="2" y="87.768" width="20" height="41.133" fill="#ffffff"/><text x="12" y="125.381" fill="#000000" font-size="16" text-anchor="middle" data-color-bar-letter="true">w</text></g><g data-color-bar-rank="3" data-color-bar-band="B"><rect x="2" y="128.901" width="20" height="63.099" fill="#2f3fbf"/><text x="12" y="188.48" fill="#ffffff" font-size="16" text-anchor="middle" data-color-bar-letter="true">b</text></g><circle cx="6.6" cy="21" r="3.4" fill="#ffffff" stroke="#000000" stroke-width="0.75" data-bar-marker="left"/><circle cx="17.4" cy="97" r="3.4" fill="#ffffff" stroke="#000000" stroke-width="0.75" data-bar-marker="right"/></g><g data-channel="label-top"><text x="28" y="17" fill="#666666" font-size="12" dominant-baseline="central">text, 43-byte</text></g><line x1="1" y1="1.5" x2="274" y2="1.5" stroke="#808080" stroke-width="1" shape-rendering="crispEdges"/><line x1="273.5" y1="1" x2="273.5" y2="193" stroke="#808080" stroke-width="1" shape-rendering="crispEdges"/><line x1="1" y1="192.5" x2="274" y2="192.5" stroke="#808080" stroke-width="1" shape-rendering="crispEdges"/><line x1="1.5" y1="1" x2="1.5" y2="193" stroke="#808080" stroke-width="1" shape-rendering="crispEdges"/><line x1="22.5" y1="1" x2="22.5" y2="193" stroke="#808080" stroke-width="1" shape-rendering="crispEdges"/></svg>