<svg width="273" height="192" viewBox="0 0 273 192" xmlns="http://www.w3.org/2000/svg" font-family="&quot;JetBrains Mono&quot;, &quot;Menlo&quot;, &quot;Consolas&quot;, &quot;DejaVu Sans Mono&quot;, &quot;Liberation Mono&quot;, &quot;Roboto Mono&quot;, &quot;Noto Sans Mono&quot;, monospace" data-entviz-version="v10" data-entviz-lib="0.10.0" data-input-bytes="43" data-cols="4" data-rows="4"><defs><clipPath id="grid-clip-1765ab1c62259d54-4x4"><rect x="27" y="26" width="240" height="160"/></clipPath></defs><rect x="0" y="0" width="273" height="192" fill="#ffffff"/><g data-channel="grid"><rect x="27" y="26" width="240" height="160" fill="#ff3f2f"/><g><rect x="27" y="26" width="6" height="10" fill="#000000"/><rect x="33" y="26" width="6" height="10" fill="#000000"/><rect x="45" y="26" width="6" height="10" fill="#000000"/><rect x="57" y="26" width="6" height="10" fill="#000000"/><rect x="69" y="26" width="6" height="10" fill="#000000"/><rect x="75" y="26" width="6" height="10" fill="#000000"/><rect x="81" y="36" width="6" height="10" fill="#000000"/><rect x="75" y="56" width="6" height="10" fill="#000000"/><rect x="69" y="56" width="6" height="10" fill="#000000"/><rect x="57" y="56" width="6" height="10" fill="#000000"/><rect x="51" y="56" width="6" height="10" fill="#000000"/><rect x="45" y="56" width="6" height="10" fill="#000000"/><rect x="33" y="56" width="6" height="10" fill="#000000"/><rect x="87" y="26" width="6" height="10" fill="#e7be00"/><rect x="99" y="26" width="6" height="10" fill="#e7be00"/><rect x="117" y="26" width="6" height="10" fill="#e7be00"/><rect x="141" y="26" width="6" height="10" fill="#e7be00"/><rect x="135" y="56" width="6" height="10" fill="#e7be00"/><rect x="129" y="56" width="6" height="10" fill="#e7be00"/><rect x="105" y="56" width="6" height="10" fill="#e7be00"/><rect x="99" y="56" width="6" height="10" fill="#e7be00"/><rect x="93" y="56" width="6" height="10" fill="#e7be00"/><rect x="153" y="26" width="6" height="10" fill="#2f3fbf"/><rect x="171" y="26" width="6" height="10" fill="#2f3fbf"/><rect x="177" y="26" width="6" height="10" fill="#2f3fbf"/><rect x="201" y="36" width="6" height="10" fill="#2f3fbf"/><rect x="201" y="56" width="6" height="10" fill="#2f3fbf"/><rect x="189" y="56" width="6" height="10" fill="#2f3fbf"/><rect x="177" y="56" width="6" height="10" fill="#2f3fbf"/><rect x="165" y="56" width="6" height="10" fill="#2f3fbf"/><rect x="159" y="56" width="6" height="10" fill="#2f3fbf"/><rect x="153" y="56" width="6" height="10" fill="#2f3fbf"/><rect x="147" y="36" width="6" height="10" fill="#2f3fbf"/><rect x="207" y="26" width="6" height="10" fill="#e7be00"/><rect x="213" y="26" width="6" height="10" fill="#e7be00"/><rect x="225" y="26" width="6" height="10" fill="#e7be00"/><rect x="231" y="26" width="6" height="10" fill="#e7be00"/><rect x="237" y="26" width="6" height="10" fill="#e7be00"/><rect x="261" y="36" width="6" height="10" fill="#e7be00"/><rect x="243" y="56" width="6" height="10" fill="#e7be00"/><rect x="219" y="56" width="6" height="10" fill="#e7be00"/><rect x="27" y="66" width="6" height="10" fill="#2f3fbf"/><rect x="33" y="66" width="6" height="10" fill="#2f3fbf"/><rect x="39" y="66" width="6" height="10" fill="#2f3fbf"/><rect x="45" y="66" width="6" height="10" fill="#2f3fbf"/><rect x="63" y="66" width="6" height="10" fill="#2f3fbf"/><rect x="69" y="66" width="6" height="10" fill="#2f3fbf"/><rect x="75" y="66" width="6" height="10" fill="#2f3fbf"/><rect x="81" y="66" width="6" height="10" fill="#2f3fbf"/><rect x="81" y="76" width="6" height="10" fill="#2f3fbf"/><rect x="81" y="86" width="6" height="10" fill="#2f3fbf"/><rect x="75" y="96" width="6" height="10" fill="#2f3fbf"/><rect x="69" y="96" width="6" height="10" fill="#2f3fbf"/><rect x="51" y="96" width="6" height="10" fill="#2f3fbf"/><rect x="39" y="96" width="6" height="10" fill="#2f3fbf"/><rect x="33" y="96" width="6" height="10" fill="#2f3fbf"/><rect x="27" y="96" width="6" height="10" fill="#2f3fbf"/><rect x="27" y="86" width="6" height="10" fill="#2f3fbf"/><rect x="153" y="66" width="6" height="10" fill="#e7be00"/><rect x="165" y="66" width="6" height="10" fill="#e7be00"/><rect x="177" y="66" width="6" height="10" fill="#e7be00"/><rect x="201" y="66" width="6" height="10" fill="#e7be00"/><rect x="201" y="86" width="6" height="10" fill="#e7be00"/><rect x="201" y="96" width="6" height="10" fill="#e7be00"/><rect x="165" y="96" width="6" height="10" fill="#e7be00"/><rect x="159" y="96" width="6" height="10" fill="#e7be00"/><rect x="147" y="96" width="6" height="10" fill="#e7be00"/><rect x="231" y="66" width="6" height="10" fill="#ffffff"/><rect x="243" y="66" width="6" height="10" fill="#ffffff"/><rect x="249" y="66" width="6" height="10" fill="#ffffff"/><rect x="261" y="66" width="6" height="10" fill="#ffffff"/><rect x="261" y="96" width="6" height="10" fill="#ffffff"/><rect x="255" y="96" width="6" height="10" fill="#ffffff"/><rect x="243" y="96" width="6" height="10" fill="#ffffff"/><rect x="237" y="96" width="6" height="10" fill="#ffffff"/><rect x="231" y="96" width="6" height="10" fill="#ffffff"/><rect x="225" y="96" width="6" height="10" fill="#ffffff"/><rect x="219" y="96" width="6" height="10" fill="#ffffff"/><rect x="213" y="96" width="6" height="10" fill="#ffffff"/><rect x="207" y="86" width="6" height="10" fill="#ffffff"/><rect x="27" y="106" width="6" height="10" fill="#2f3fbf"/><rect x="33" y="106" width="6" height="10" fill="#2f3fbf"/><rect x="39" y="106" width="6" height="10" fill="#2f3fbf"/><rect x="45" y="106" width="6" height="10" fill="#2f3fbf"/><rect x="57" y="106" width="6" height="10" fill="#2f3fbf"/><rect x="69" y="106" width="6" height="10" fill="#2f3fbf"/><rect x="75" y="106" width="6" height="10" fill="#2f3fbf"/><rect x="81" y="136" width="6" height="10" fill="#2f3fbf"/><rect x="69" y="136" width="6" height="10" fill="#2f3fbf"/><rect x="51" y="136" width="6" height="10" fill="#2f3fbf"/><rect x="45" y="136" width="6" height="10" fill="#2f3fbf"/><rect x="33" y="136" width="6" height="10" fill="#2f3fbf"/><rect x="27" y="136" width="6" height="10" fill="#2f3fbf"/><rect x="27" y="116" width="6" height="10" fill="#2f3fbf"/><rect x="87" y="106" width="6" height="10" fill="#2f3fbf"/><rect x="93" y="106" width="6" height="10" fill="#2f3fbf"/><rect x="99" y="106" width="6" height="10" fill="#2f3fbf"/><rect x="117" y="106" width="6" height="10" fill="#2f3fbf"/><rect x="141" y="136" width="6" height="10" fill="#2f3fbf"/><rect x="135" y="136" width="6" height="10" fill="#2f3fbf"/><rect x="123" y="136" width="6" height="10" fill="#2f3fbf"/><rect x="105" y="136" width="6" height="10" fill="#2f3fbf"/><rect x="93" y="136" width="6" height="10" fill="#2f3fbf"/><rect x="159" y="106" width="6" height="10" fill="#2f3fbf"/><rect x="177" y="106" width="6" height="10" fill="#2f3fbf"/><rect x="189" y="106" width="6" height="10" fill="#2f3fbf"/><rect x="195" y="106" width="6" height="10" fill="#2f3fbf"/><rect x="201" y="106" width="6" height="10" fill="#2f3fbf"/><rect x="201" y="116" width="6" height="10" fill="#2f3fbf"/><rect x="201" y="136" width="6" height="10" fill="#2f3fbf"/><rect x="189" y="136" width="6" height="10" fill="#2f3fbf"/><rect x="183" y="136" width="6" height="10" fill="#2f3fbf"/><rect x="165" y="136" width="6" height="10" fill="#2f3fbf"/><rect x="159" y="136" width="6" height="10" fill="#2f3fbf"/><rect x="153" y="136" width="6" height="10" fill="#2f3fbf"/><rect x="147" y="136" width="6" height="10" fill="#2f3fbf"/><rect x="147" y="126" width="6" height="10" fill="#2f3fbf"/><rect x="207" y="106" width="6" height="10" fill="#e7be00"/><rect x="213" y="106" width="6" height="10" fill="#e7be00"/><rect x="219" y="106" width="6" height="10" fill="#e7be00"/><rect x="231" y="106" width="6" height="10" fill="#e7be00"/><rect x="249" y="106" width="6" height="10" fill="#e7be00"/><rect x="261" y="126" width="6" height="10" fill="#e7be00"/><rect x="255" y="136" width="6" height="10" fill="#e7be00"/><rect x="249" y="136" width="6" height="10" fill="#e7be00"/><rect x="243" y="136" width="6" height="10" fill="#e7be00"/><rect x="237" y="136" width="6" height="10" fill="#e7be00"/><rect x="213" y="136" width="6" height="10" fill="#e7be00"/><rect x="33" y="146" width="6" height="10" fill="#2f3fbf"/><rect x="39" y="146" width="6" height="10" fill="#2f3fbf"/><rect x="51" y="146" width="6" height="10" fill="#2f3fbf"/><rect x="63" y="146" width="6" height="10" fill="#2f3fbf"/><rect x="75" y="146" width="6" height="10" fill="#2f3fbf"/><rect x="75" y="176" width="6" height="10" fill="#2f3fbf"/><rect x="69" y="176" width="6" height="10" fill="#2f3fbf"/><rect x="63" y="176" width="6" height="10" fill="#2f3fbf"/><rect x="57" y="176" width="6" height="10" fill="#2f3fbf"/><rect x="51" y="176" width="6" height="10" fill="#2f3fbf"/><rect x="45" y="176" width="6" height="10" fill="#2f3fbf"/><rect x="39" y="176" width="6" height="10" fill="#2f3fbf"/><rect x="33" y="176" width="6" height="10" fill="#2f3fbf"/><rect x="27" y="176" width="6" height="10" fill="#2f3fbf"/><rect x="27" y="166" width="6" height="10" fill="#2f3fbf"/><rect x="93" y="146" width="6" height="10" fill="#2f3fbf"/><rect x="105" y="146" width="6" height="10" fill="#2f3fbf"/><rect x="111" y="146" width="6" height="10" fill="#2f3fbf"/><rect x="117" y="146" width="6" height="10" fill="#2f3fbf"/><rect x="129" y="146" width="6" height="10" fill="#2f3fbf"/><rect x="141" y="146" width="6" height="10" fill="#2f3fbf"/><rect x="141" y="156" width="6" height="10" fill="#2f3fbf"/><rect x="141" y="176" width="6" height="10" fill="#2f3fbf"/><rect x="111" y="176" width="6" height="10" fill="#2f3fbf"/><rect x="87" y="176" width="6" height="10" fill="#2f3fbf"/><rect x="147" y="146" width="6" height="10" fill="#e7be00"/><rect x="159" y="146" width="6" height="10" fill="#e7be00"/><rect x="201" y="156" width="6" height="10" fill="#e7be00"/><rect x="201" y="166" width="6" height="10" fill="#e7be00"/><rect x="201" y="176" width="6" height="10" fill="#e7be00"/><rect x="195" y="176" width="6" height="10" fill="#e7be00"/><rect x="189" y="176" width="6" height="10" fill="#e7be00"/><rect x="183" y="176" width="6" height="10" fill="#e7be00"/><rect x="177" y="176" width="6" height="10" fill="#e7be00"/><rect x="171" y="176" width="6" height="10" fill="#e7be00"/><rect x="165" y="176" width="6" height="10" fill="#e7be00"/><rect x="147" y="176" width="6" height="10" fill="#e7be00"/><rect x="207" y="146" width="6" height="10" fill="#2f3fbf"/><rect x="231" y="146" width="6" height="10" fill="#2f3fbf"/><rect x="243" y="146" width="6" height="10" fill="#2f3fbf"/><rect x="249" y="146" width="6" height="10" fill="#2f3fbf"/><rect x="261" y="146" width="6" height="10" fill="#2f3fbf"/><rect x="261" y="166" width="6" height="10" fill="#2f3fbf"/><rect x="261" y="176" width="6" height="10" fill="#2f3fbf"/><rect x="249" y="176" width="6" height="10" fill="#2f3fbf"/><rect x="243" y="176" width="6" height="10" fill="#2f3fbf"/><rect x="237" y="176" width="6" height="10" fill="#2f3fbf"/><rect x="231" y="176" width="6" height="10" fill="#2f3fbf"/><rect x="225" y="176" width="6" height="10" fill="#2f3fbf"/><rect x="219" y="176" width="6" height="10" fill="#2f3fbf"/><rect x="207" y="156" width="6" height="10" fill="#2f3fbf"/></g><g clip-path="url(#grid-clip-1765ab1c62259d54-4x4)" data-channel="ellipse" data-ellipse-anchor-x="147" data-ellipse-anchor-y="66" data-ellipse-rx="94.356" data-ellipse-ry="98.429" data-ellipse-rotation-deg="84"><ellipse cx="147" cy="66" rx="94.356" ry="98.429" transform="rotate(84 147 66)" fill="#000000" stroke="#000000" fill-opacity="0.25" stroke-opacity="0.35" stroke-width="2"/></g><g><g data-channel="cell" data-cell-index="0" data-cell-row="0" data-cell-col="0" data-cell-quartile="4"><rect x="33" y="36" width="48" height="20" fill="#656854"/><text x="57" y="46" fill="#ffffff" font-size="16" text-anchor="middle" dominant-baseline="central">VGhl</text><polygon points="33,56 33,46 43,56" fill="#ffffff"/></g><g data-channel="cell" data-cell-index="1" data-cell-row="0" data-cell-col="1"><rect x="93" y="36" width="48" height="20" fill="#757120"/><text x="117" y="46" fill="#ffffff" font-size="16" text-anchor="middle" dominant-baseline="central">IHF1</text></g><g data-channel="cell" data-cell-index="2" data-cell-row="0" data-cell-col="2"><rect x="153" y="36" width="48" height="20" fill="#6b6369"/><text x="177" y="46" fill="#ffffff" font-size="16" text-anchor="middle" dominant-baseline="central">aWNr</text></g><g data-channel="cell" data-cell-index="3" data-cell-row="0" data-cell-col="3"><rect x="213" y="36" width="48" height="20" fill="#726220"/><text x="237" y="46" fill="#ffffff" font-size="16" text-anchor="middle" dominant-baseline="central">IGJy</text></g><g data-channel="cell" data-cell-index="4" data-cell-row="1" data-cell-col="0"><rect x="33" y="76" width="48" height="20" fill="#6e776f"/><text x="57" y="86" fill="#ffffff" font-size="16" text-anchor="middle" dominant-baseline="central">b3du</text></g><g data-channel="cell" data-cell-index="5" data-cell-row="1" data-cell-col="1" data-cell-blank="true" data-cell-blank-map="true"><rect x="93" y="76" width="48" height="20" rx="10" ry="10" fill="#000000" stroke="#000000" stroke-width="1"/><circle cx="135" cy="78.5" r="3.5" fill="#ffffff" data-blank-map-min="0,3"/><path d="M 94.8,88.5 H 103.2 M 99,84.3 V 92.7" fill="none" stroke="#ffffff" stroke-width="1.925" stroke-linecap="butt" data-blank-map-max="2,0"/></g><g data-channel="cell" data-cell-index="6" data-cell-row="1" data-cell-col="2"><rect x="153" y="76" width="48" height="20" fill="#6f6620"/><text x="177" y="86" fill="#ffffff" font-size="16" text-anchor="middle" dominant-baseline="central">IGZv</text></g><g data-channel="cell" data-cell-index="7" data-cell-row="1" data-cell-col="3" data-cell-quartile="2"><rect x="213" y="76" width="48" height="20" fill="#6a2078"/><text x="237" y="86" fill="#ffffff" font-size="16" text-anchor="middle" dominant-baseline="central">eCBq</text><polygon points="261,76 251,76 261,86" fill="#ffffff"/></g><g data-channel="cell" data-cell-index="8" data-cell-row="2" data-cell-col="0"><rect x="33" y="116" width="48" height="20" fill="#706d75"/><text x="57" y="126" fill="#ffffff" font-size="16" text-anchor="middle" dominant-baseline="central">dW1w</text></g><g data-channel="cell" data-cell-index="9" data-cell-row="2" data-cell-col="1"><rect x="93" y="116" width="48" height="20" fill="#6f2073"/><text x="117" y="126" fill="#ffffff" font-size="16" text-anchor="middle" dominant-baseline="central">cyBv</text></g><g data-channel="cell" data-cell-index="10" data-cell-row="2" data-cell-col="2" data-cell-quartile="3"><rect x="153" y="116" width="48" height="20" fill="#726576"/><text x="177" y="126" fill="#ffffff" font-size="16" text-anchor="middle" dominant-baseline="central">dmVy</text><polygon points="201,136 201,126 191,136" fill="#ffffff"/></g><g data-channel="cell" data-cell-index="11" data-cell-row="2" data-cell-col="3"><rect x="213" y="116" width="48" height="20" fill="#687420"/><text x="237" y="126" fill="#ffffff" font-size="16" text-anchor="middle" dominant-baseline="central">IHRo</text></g><g data-channel="cell" data-cell-index="12" data-cell-row="3" data-cell-col="0"><rect x="33" y="156" width="48" height="20" fill="#6c2065"/><text x="57" y="166" fill="#ffffff" font-size="16" text-anchor="middle" dominant-baseline="central">ZSBs</text></g><g data-channel="cell" data-cell-index="13" data-cell-row="3" data-cell-col="1" data-cell-quartile="1"><rect x="93" y="156" width="48" height="20" fill="#797a61"/><text x="117" y="166" fill="#ffffff" font-size="16" text-anchor="middle" dominant-baseline="central">YXp5</text><polygon points="93,156 103,156 93,166" fill="#ffffff"/></g><g data-channel="cell" data-cell-index="14" data-cell-row="3" data-cell-col="2"><rect x="153" y="156" width="48" height="20" fill="#6f6420"/><text x="177" y="166" fill="#ffffff" font-size="16" text-anchor="middle" dominant-baseline="central">IGRv</text></g><g data-channel="cell" data-cell-index="15" data-cell-row="3" data-cell-col="3"><rect x="213" y="156" width="48" height="20" fill="#700667"/><text x="237" y="166" fill="#ffffff" font-size="16" text-anchor="middle" dominant-baseline="central">Zw</text></g></g></g><g data-channel="color-bar" data-bar-slots="15" data-bar-marker-left="1" data-bar-marker-right="7"><g data-color-bar-rank="0" data-color-bar-band="K"><rect x="1" y="1" width="20" height="36.077" fill="#000000"/><text x="11" y="33.557" fill="#ffffff" font-size="16" text-anchor="middle" data-color-bar-letter="true">k</text></g><g data-color-bar-rank="1" data-color-bar-band="G"><rect x="1" y="37.077" width="20" height="49.691" fill="#e7be00"/><text x="11" y="83.248" fill="#000000" font-size="16" text-anchor="middle" data-color-bar-letter="true">g</text></g><g data-color-bar-rank="2" data-color-bar-band="W"><rect x="1" y="86.768" width="20" height="41.133" fill="#ffffff"/><text x="11" y="124.381" fill="#000000" font-size="16" text-anchor="middle" data-color-bar-letter="true">w</text></g><g data-color-bar-rank="3" data-color-bar-band="B"><rect x="1" y="127.901" width="20" height="63.099" fill="#2f3fbf"/><text x="11" y="187.48" fill="#ffffff" font-size="16" text-anchor="middle" data-color-bar-letter="true">b</text></g><circle cx="5.6" cy="20" r="3.4" fill="#ffffff" stroke="#000000" stroke-width="0.75" data-bar-marker="left"/><circle cx="16.4" cy="96" r="3.4" fill="#ffffff" stroke="#000000" stroke-width="0.75" data-bar-marker="right"/></g><g data-channel="label-top"><text x="27" y="16" fill="#666666" font-size="12" dominant-baseline="central">txt(43)-&gt;b64url:</text></g><line x1="0" y1="0.5" x2="273" y2="0.5" stroke="#808080" stroke-width="1" shape-rendering="crispEdges"/><line x1="272.5" y1="0" x2="272.5" y2="192" stroke="#808080" stroke-width="1" shape-rendering="crispEdges"/><line x1="0" y1="191.5" x2="273" y2="191.5" stroke="#808080" stroke-width="1" shape-rendering="crispEdges"/><line x1="0.5" y1="0" x2="0.5" y2="192" stroke="#808080" stroke-width="1" shape-rendering="crispEdges"/><line x1="21.5" y1="0" x2="21.5" y2="192" stroke="#808080" stroke-width="1" shape-rendering="crispEdges"/></svg>