<svg width="153" height="152" viewBox="0 0 153 152" xmlns="http://www.w3.org/2000/svg" data-entviz-version="v10" data-entviz-lib="0.10.0" data-input-bytes="36" data-cols="2" data-rows="3"><defs><clipPath id="grid-clip-24292fbf2cbc3d58-2x3"><rect x="27" y="26" width="120" height="120"/></clipPath></defs><rect x="0" y="0" width="153" height="152" fill="#ffffff"/><g data-channel="grid"><rect x="27" y="26" width="120" height="120" fill="#ffffff"/><g><rect x="27" y="26" width="6" height="10" fill="#000000"/><rect x="33" y="26" width="6" height="10" fill="#000000"/><rect x="39" y="26" width="6" height="10" fill="#000000"/><rect x="45" y="26" width="6" height="10" fill="#000000"/><rect x="57" y="26" width="6" height="10" fill="#000000"/><rect x="75" y="26" width="6" height="10" fill="#000000"/><rect x="81" y="46" width="6" height="10" fill="#000000"/><rect x="75" y="56" width="6" height="10" fill="#000000"/><rect x="45" y="56" width="6" height="10" fill="#000000"/><rect x="27" y="56" width="6" height="10" fill="#000000"/><rect x="99" y="26" width="6" height="10" fill="#e7be00"/><rect x="105" y="26" width="6" height="10" fill="#e7be00"/><rect x="111" y="26" width="6" height="10" fill="#e7be00"/><rect x="117" y="26" width="6" height="10" fill="#e7be00"/><rect x="129" y="26" width="6" height="10" fill="#e7be00"/><rect x="141" y="36" width="6" height="10" fill="#e7be00"/><rect x="141" y="46" width="6" height="10" fill="#e7be00"/><rect x="135" y="56" width="6" height="10" fill="#e7be00"/><rect x="117" y="56" width="6" height="10" fill="#e7be00"/><rect x="111" y="56" width="6" height="10" fill="#e7be00"/><rect x="105" y="56" width="6" height="10" fill="#e7be00"/><rect x="99" y="56" width="6" height="10" fill="#e7be00"/><rect x="93" y="56" width="6" height="10" fill="#e7be00"/><rect x="87" y="56" width="6" height="10" fill="#e7be00"/><rect x="87" y="36" width="6" height="10" fill="#e7be00"/><rect x="27" y="66" width="6" height="10" fill="#e7be00"/><rect x="33" y="66" width="6" height="10" fill="#e7be00"/><rect x="39" y="66" width="6" height="10" fill="#e7be00"/><rect x="45" y="66" width="6" height="10" fill="#e7be00"/><rect x="51" y="66" width="6" height="10" fill="#e7be00"/><rect x="57" y="66" width="6" height="10" fill="#e7be00"/><rect x="63" y="66" width="6" height="10" fill="#e7be00"/><rect x="69" y="66" width="6" height="10" fill="#e7be00"/><rect x="81" y="86" width="6" height="10" fill="#e7be00"/><rect x="81" y="96" width="6" height="10" fill="#e7be00"/><rect x="69" y="96" width="6" height="10" fill="#e7be00"/><rect x="57" y="96" width="6" height="10" fill="#e7be00"/><rect x="45" y="96" width="6" height="10" fill="#e7be00"/><rect x="39" y="96" width="6" height="10" fill="#e7be00"/><rect x="33" y="96" width="6" height="10" fill="#e7be00"/><rect x="27" y="96" width="6" height="10" fill="#e7be00"/><rect x="93" y="66" width="6" height="10" fill="#2f3fbf"/><rect x="129" y="66" width="6" height="10" fill="#2f3fbf"/><rect x="135" y="66" width="6" height="10" fill="#2f3fbf"/><rect x="141" y="76" width="6" height="10" fill="#2f3fbf"/><rect x="129" y="96" width="6" height="10" fill="#2f3fbf"/><rect x="123" y="96" width="6" height="10" fill="#2f3fbf"/><rect x="117" y="96" width="6" height="10" fill="#2f3fbf"/><rect x="27" y="106" width="6" height="10" fill="#000000"/><rect x="33" y="106" width="6" height="10" fill="#000000"/><rect x="39" y="106" width="6" height="10" fill="#000000"/><rect x="51" y="106" width="6" height="10" fill="#000000"/><rect x="57" y="106" width="6" height="10" fill="#000000"/><rect x="63" y="106" width="6" height="10" fill="#000000"/><rect x="81" y="126" width="6" height="10" fill="#000000"/><rect x="63" y="136" width="6" height="10" fill="#000000"/><rect x="39" y="136" width="6" height="10" fill="#000000"/><rect x="33" y="136" width="6" height="10" fill="#000000"/><rect x="27" y="136" width="6" height="10" fill="#000000"/><rect x="27" y="116" width="6" height="10" fill="#000000"/><rect x="99" y="106" width="6" height="10" fill="#000000"/><rect x="105" y="106" width="6" height="10" fill="#000000"/><rect x="129" y="106" width="6" height="10" fill="#000000"/><rect x="141" y="126" width="6" height="10" fill="#000000"/><rect x="141" y="136" width="6" height="10" fill="#000000"/><rect x="129" y="136" width="6" height="10" fill="#000000"/><rect x="111" y="136" width="6" height="10" fill="#000000"/><rect x="105" y="136" width="6" height="10" fill="#000000"/><rect x="99" y="136" width="6" height="10" fill="#000000"/><rect x="87" y="136" width="6" height="10" fill="#000000"/></g><g clip-path="url(#grid-clip-24292fbf2cbc3d58-2x3)" data-channel="ellipse" data-ellipse-anchor-x="27" data-ellipse-anchor-y="146" data-ellipse-rx="73.99165358336032" data-ellipse-ry="37.335238046649714" data-ellipse-rotation-deg="72"><ellipse cx="27" cy="146" rx="73.99165358336032" ry="37.335238046649714" transform="rotate(72 27 146)" fill="#000000" stroke="#000000" fill-opacity="0.2" stroke-opacity="0.3" stroke-width="2"/></g><g><g data-channel="cell" data-cell-index="0" data-cell-row="0" data-cell-col="0"><rect x="33" y="36" width="48" height="20" fill="#840e55"/><text x="57" y="46" fill="#ffffff" style="font-family: &quot;JetBrains Mono&quot;, &quot;Menlo&quot;, &quot;Consolas&quot;, &quot;DejaVu Sans Mono&quot;, &quot;Liberation Mono&quot;, &quot;Roboto Mono&quot;, &quot;Noto Sans Mono&quot;, monospace; font-size: 12px;" text-anchor="middle" dominant-baseline="central">550e84</text></g><g data-channel="cell" data-cell-index="1" data-cell-row="0" data-cell-col="1"><rect x="93" y="36" width="48" height="20" fill="#9be200"/><text x="117" y="46" fill="#000000" style="font-family: &quot;JetBrains Mono&quot;, &quot;Menlo&quot;, &quot;Consolas&quot;, &quot;DejaVu Sans Mono&quot;, &quot;Liberation Mono&quot;, &quot;Roboto Mono&quot;, &quot;Noto Sans Mono&quot;, monospace; font-size: 12px;" text-anchor="middle" dominant-baseline="central">00e29b</text></g><g data-channel="cell" data-cell-index="2" data-cell-row="1" data-cell-col="0" data-cell-quartile="3"><rect x="33" y="76" width="48" height="20" fill="#a7d441"/><text x="57" y="86" fill="#000000" style="font-family: &quot;JetBrains Mono&quot;, &quot;Menlo&quot;, &quot;Consolas&quot;, &quot;DejaVu Sans Mono&quot;, &quot;Liberation Mono&quot;, &quot;Roboto Mono&quot;, &quot;Noto Sans Mono&quot;, monospace; font-size: 12px;" text-anchor="middle" dominant-baseline="central">41d4a7</text><polygon points="81,96 81,86 71,96" fill="#000000"/></g><g data-channel="cell" data-cell-index="3" data-cell-row="1" data-cell-col="1" data-cell-quartile="2"><rect x="93" y="76" width="48" height="20" fill="#664416"/><text x="117" y="86" fill="#ffffff" style="font-family: &quot;JetBrains Mono&quot;, &quot;Menlo&quot;, &quot;Consolas&quot;, &quot;DejaVu Sans Mono&quot;, &quot;Liberation Mono&quot;, &quot;Roboto Mono&quot;, &quot;Noto Sans Mono&quot;, monospace; font-size: 12px;" text-anchor="middle" dominant-baseline="central">164466</text><polygon points="141,76 131,76 141,86" fill="#ffffff"/></g><g data-channel="cell" data-cell-index="4" data-cell-row="2" data-cell-col="0" data-cell-quartile="1"><rect x="33" y="116" width="48" height="20" fill="#004455"/><text x="57" y="126" fill="#ffffff" style="font-family: &quot;JetBrains Mono&quot;, &quot;Menlo&quot;, &quot;Consolas&quot;, &quot;DejaVu Sans Mono&quot;, &quot;Liberation Mono&quot;, &quot;Roboto Mono&quot;, &quot;Noto Sans Mono&quot;, monospace; font-size: 12px;" text-anchor="middle" dominant-baseline="central">554400</text><polygon points="33,116 43,116 33,126" fill="#ffffff"/></g><g data-channel="cell" data-cell-index="5" data-cell-row="2" data-cell-col="1"><rect x="93" y="116" width="48" height="20" fill="#000000"/><text x="117" y="126" fill="#ffffff" style="font-family: &quot;JetBrains Mono&quot;, &quot;Menlo&quot;, &quot;Consolas&quot;, &quot;DejaVu Sans Mono&quot;, &quot;Liberation Mono&quot;, &quot;Roboto Mono&quot;, &quot;Noto Sans Mono&quot;, monospace; font-size: 12px;" text-anchor="middle" dominant-baseline="central">00</text></g></g></g><g data-channel="color-bar" data-bar-slots="12" data-bar-marker-left="2" data-bar-marker-right="8"><g data-color-bar-rank="0" data-color-bar-band="G"><rect x="1" y="1" width="20" height="82.120053363596" fill="#e7be00"/><text x="11" y="80.480053363596" fill="#000000" style="font-family: &quot;JetBrains Mono&quot;, &quot;Menlo&quot;, &quot;Consolas&quot;, &quot;DejaVu Sans Mono&quot;, &quot;Liberation Mono&quot;, &quot;Roboto Mono&quot;, &quot;Noto Sans Mono&quot;, monospace; font-size: 12px;" text-anchor="middle" data-color-bar-letter="true">g</text></g><g data-color-bar-rank="1" data-color-bar-band="R"><rect x="1" y="83.120053363596" width="20" height="15.05263829002075" fill="#ff3f2f"/><text x="11" y="95.53269165361675" fill="#000000" style="font-family: &quot;JetBrains Mono&quot;, &quot;Menlo&quot;, &quot;Consolas&quot;, &quot;DejaVu Sans Mono&quot;, &quot;Liberation Mono&quot;, &quot;Roboto Mono&quot;, &quot;Noto Sans Mono&quot;, monospace; font-size: 12px;" text-anchor="middle" data-color-bar-letter="true">r</text></g><g data-color-bar-rank="2" data-color-bar-band="B"><rect x="1" y="98.17269165361675" width="20" height="26.413654173191624" fill="#2f3fbf"/><text x="11" y="121.94634582680838" fill="#ffffff" style="font-family: &quot;JetBrains Mono&quot;, &quot;Menlo&quot;, &quot;Consolas&quot;, &quot;DejaVu Sans Mono&quot;, &quot;Liberation Mono&quot;, &quot;Roboto Mono&quot;, &quot;Noto Sans Mono&quot;, monospace; font-size: 12px;" text-anchor="middle" data-color-bar-letter="true">b</text></g><g data-color-bar-rank="3" data-color-bar-band="K"><rect x="1" y="124.58634582680838" width="20" height="26.413654173191617" fill="#000000"/><text x="11" y="148.36" fill="#ffffff" style="font-family: &quot;JetBrains Mono&quot;, &quot;Menlo&quot;, &quot;Consolas&quot;, &quot;DejaVu Sans Mono&quot;, &quot;Liberation Mono&quot;, &quot;Roboto Mono&quot;, &quot;Noto Sans Mono&quot;, monospace; font-size: 12px;" text-anchor="middle" data-color-bar-letter="true">k</text></g><circle cx="5.6000000000000005" cy="32.25" r="3.4000000000000004" fill="#ffffff" stroke="#000000" stroke-width="0.75" data-bar-marker="left"/><circle cx="16.4" cy="107.25" r="3.4000000000000004" fill="#ffffff" stroke="#000000" stroke-width="0.75" data-bar-marker="right"/></g><g data-channel="label-top"><text x="27" y="16" fill="#666666" style="font-family: &quot;JetBrains Mono&quot;, &quot;Menlo&quot;, &quot;Consolas&quot;, &quot;DejaVu Sans Mono&quot;, &quot;Liberation Mono&quot;, &quot;Roboto Mono&quot;, &quot;Noto Sans Mono&quot;, monospace; font-size: 12px;" dominant-baseline="central">UUID:</text></g><line x1="0" y1="0.5" x2="153" y2="0.5" stroke="#808080" stroke-width="1" shape-rendering="crispEdges"/><line x1="152.5" y1="0" x2="152.5" y2="152" stroke="#808080" stroke-width="1" shape-rendering="crispEdges"/><line x1="0" y1="151.5" x2="153" y2="151.5" stroke="#808080" stroke-width="1" shape-rendering="crispEdges"/><line x1="0.5" y1="0" x2="0.5" y2="152" stroke="#808080" stroke-width="1" shape-rendering="crispEdges"/><line x1="21.5" y1="0" x2="21.5" y2="152" stroke="#808080" stroke-width="1" shape-rendering="crispEdges"/></svg>